<svg width="1114" height="594" viewBox="0 0 1114 594" fill="none" xmlns="http://www.w3.org/2000/svg">
<g id="undraw_Vehicle_sale_a645 1">
<g id="right-wheel">
<path id="Vector" d="M1069.29 364.274C1069.29 387.302 1060.4 409.441 1044.47 426.07C1028.54 442.7 1006.8 452.536 983.796 453.525C960.789 454.514 938.289 446.58 920.991 431.379C903.693 416.178 892.934 394.883 890.958 371.94C890.828 370.489 890.731 369.038 890.688 367.566V367.49C890.644 366.418 890.623 365.346 890.623 364.274C890.63 340.586 900.046 317.872 916.798 301.125C933.551 284.378 956.269 274.97 979.956 274.97C1003.64 274.97 1026.36 284.378 1043.11 301.125C1059.87 317.872 1069.28 340.586 1069.29 364.274V364.274Z" fill="#65617D"/>
<path id="Vector_2" d="M979.953 413.001C1006.86 413.001 1028.68 391.185 1028.68 364.274C1028.68 337.362 1006.86 315.546 979.953 315.546C953.042 315.546 931.226 337.362 931.226 364.274C931.226 391.185 953.042 413.001 979.953 413.001Z" fill="url(#paint0_linear)"/>
<path id="Vector_3" d="M979.953 393.51C996.1 393.51 1009.19 380.421 1009.19 364.274C1009.19 348.127 996.1 335.037 979.953 335.037C963.807 335.037 950.717 348.127 950.717 364.274C950.717 380.421 963.807 393.51 979.953 393.51Z" fill="#65617D"/>
</g>
<g id="left-wheel">
<path id="Vector_4" d="M592.378 364.274C592.379 387.302 583.486 409.441 567.557 426.07C551.627 442.7 529.891 452.536 506.884 453.525C483.877 454.514 461.377 446.58 444.079 431.379C426.781 416.178 416.022 394.883 414.046 371.94C413.916 370.489 413.819 369.038 413.776 367.566V367.49C413.732 366.418 413.711 365.346 413.711 364.274C413.719 340.586 423.134 317.872 439.886 301.125C456.639 284.378 479.357 274.97 503.044 274.97C526.732 274.97 549.45 284.378 566.202 301.125C582.954 317.872 592.37 340.586 592.378 364.274V364.274Z" fill="#65617D"/>
<path id="Vector_5" d="M503.042 413.001C529.953 413.001 551.769 391.185 551.769 364.274C551.769 337.362 529.953 315.546 503.042 315.546C476.13 315.546 454.314 337.362 454.314 364.274C454.314 391.185 476.13 413.001 503.042 413.001Z" fill="url(#paint1_linear)"/>
<path id="Vector_6" d="M503.042 393.51C519.188 393.51 532.278 380.421 532.278 364.274C532.278 348.127 519.188 335.037 503.042 335.037C486.895 335.037 473.805 348.127 473.805 364.274C473.805 380.421 486.895 393.51 503.042 393.51Z" fill="#65617D"/>
</g>
<g id="body-car">
<path id="Vector_7" d="M1097.15 347.534L1067.35 346.238L1040.13 295.696L944.23 287.92L897.575 348.83L900.167 365.678L893.687 381.229L589.138 383.821V376.045H586.546L583.954 364.382H607.281L590.434 346.238L530.82 295.696C530.82 295.696 428.439 298.288 427.143 295.696C425.847 293.104 432.975 266.537 432.975 266.537L477.038 253.578L627.369 241.914C660.415 189.428 690.222 164.805 690.222 164.805H1076.42L1094.56 258.113V258.334L1097.15 347.534Z" fill="#444053"/>
<path id="Vector_8" d="M882.024 354.014C882.024 354.014 920.903 281.441 950.71 281.441H1023.28C1023.28 281.441 1041.43 281.441 1049.2 295.696L1079.01 354.014H1055.68C1055.68 354.014 1036.24 299.584 1014.21 298.288C992.18 296.992 954.597 298.288 954.597 298.288C954.597 298.288 941.638 298.288 933.862 313.839C926.086 329.391 899.796 363.266 899.796 363.266C899.796 363.266 871.656 372.157 882.024 354.014Z" fill="#33323D"/>
<path id="Vector_9" d="M1114 342.351H1065.25L1064.75 381.229L1114 369.566V342.351Z" fill="#33323D"/>
<path id="Vector_10" d="M409 319.023C409 319.023 411.592 299.584 429.735 291.808L548.963 285.328C548.963 285.328 568.403 286.625 578.77 311.248L612.465 361.79V369.566H574.882C574.882 369.566 556.739 300.88 504.901 303.472H442.695C442.695 303.472 428.439 303.472 423.256 326.799L409 319.023Z" fill="#33323D"/>
<path id="Vector_11" d="M688.927 172.58H1086.78C1086.78 168.799 1085.28 165.173 1082.61 162.5C1079.94 159.827 1076.31 158.325 1072.53 158.325H703.182C701.31 158.325 699.456 158.693 697.727 159.41C695.997 160.126 694.426 161.176 693.102 162.5C691.778 163.824 690.728 165.395 690.012 167.125C689.295 168.854 688.927 170.708 688.927 172.58Z" fill="#33323D"/>
<path id="Vector_12" opacity="0.3" d="M774.189 249.042H664.093C662.853 249.042 661.633 248.732 660.543 248.14C659.453 247.549 658.528 246.694 657.852 245.654C657.176 244.614 656.771 243.422 656.673 242.186C656.575 240.95 656.788 239.708 657.291 238.575L674.713 199.377C677.401 193.33 681.785 188.192 687.334 184.586C692.883 180.979 699.358 179.06 705.976 179.06H772.868C774.098 179.06 775.316 179.302 776.452 179.773C777.589 180.244 778.622 180.934 779.492 181.804C780.361 182.674 781.051 183.706 781.522 184.843C781.993 185.979 782.235 187.198 782.235 188.428V240.996C782.235 242.052 782.027 243.098 781.623 244.075C781.218 245.051 780.626 245.938 779.879 246.685C779.131 247.432 778.244 248.025 777.268 248.429C776.292 248.834 775.246 249.042 774.189 249.042Z" fill="#6C63FF"/>
<path id="Vector_13" opacity="0.3" d="M912.771 179.06H816.286C813.226 179.06 810.746 181.54 810.746 184.599V243.502C810.746 246.562 813.226 249.042 816.286 249.042H912.771C915.831 249.042 918.311 246.562 918.311 243.502V184.599C918.311 181.54 915.831 179.06 912.771 179.06Z" fill="#6C63FF"/>
<path id="Vector_14" d="M1094.56 258.113V258.334L927.382 260.705L923.028 164.805H1076.42L1094.56 258.113Z" fill="#33323D"/>
<path id="Vector_15" opacity="0.3" d="M1059.21 179.06H947.177C944.118 179.06 941.638 181.54 941.638 184.599V243.502C941.638 246.562 944.118 249.042 947.177 249.042H1059.21C1062.27 249.042 1064.75 246.562 1064.75 243.502V184.599C1064.75 181.54 1062.27 179.06 1059.21 179.06Z" fill="#6C63FF"/>
<path id="Vector_16" d="M788.251 273.665H750.3C749.328 273.665 748.541 274.453 748.541 275.425V279.681C748.541 280.653 749.328 281.441 750.3 281.441H788.251C789.223 281.441 790.011 280.653 790.011 279.681V275.425C790.011 274.453 789.223 273.665 788.251 273.665Z" fill="#33323D"/>
<path id="Vector_17" d="M907.479 273.665H869.528C868.556 273.665 867.768 274.453 867.768 275.425V279.681C867.768 280.653 868.556 281.441 869.528 281.441H907.479C908.451 281.441 909.239 280.653 909.239 279.681V275.425C909.239 274.453 908.451 273.665 907.479 273.665Z" fill="#33323D"/>
</g>
</g>
<defs>
<linearGradient id="paint0_linear" x1="979.953" y1="315.546" x2="979.953" y2="413.001" gradientUnits="userSpaceOnUse">
<stop stop-color="#DCE0ED"/>
<stop offset="0.927083" stop-color="#8590B1"/>
</linearGradient>
<linearGradient id="paint1_linear" x1="503.042" y1="315.546" x2="503.042" y2="413.001" gradientUnits="userSpaceOnUse">
<stop stop-color="#DCE0ED"/>
<stop offset="0.927083" stop-color="#8590B1"/>
</linearGradient>
</defs>
</svg>
